<?xml version="1.0" encoding="utf-8"?>
<!-- Generator: Adobe Illustrator 16.0.2, SVG Export Plug-In . SVG Version: 6.00 Build 0)  -->
<!DOCTYPE svg PUBLIC "-//W3C//DTD SVG 1.1//EN" "http://www.w3.org/Graphics/SVG/1.1/DTD/svg11.dtd">
<svg version="1.1" id="Layer_1" xmlns="http://www.w3.org/2000/svg" xmlns:xlink="http://www.w3.org/1999/xlink" x="0px" y="0px"
	 width="17.674px" height="17.674px" viewBox="0 0 17.674 17.674" enable-background="new 0 0 17.674 17.674" xml:space="preserve">
<g>
	<g>
		<path fill-rule="evenodd" clip-rule="evenodd" d="M17.708,6.697c-0.156,0.159-0.356,0.202-0.566,0.204
			c-0.16,0.001-0.23,0.068-0.267,0.226c-0.048,0.205-0.112,0.411-0.205,0.599c-0.123,0.246-0.315,0.301-0.563,0.178
			c-0.147-0.074-0.296-0.161-0.418-0.27c-0.596-0.535-1.293-0.701-2.066-0.584c-0.823,0.125-1.629,0.06-2.419-0.193
			c-0.713-0.229-1.419-0.155-2.12,0.049C8.97,6.938,8.871,7.032,8.773,7.107c-0.049,0.037-0.078,0.099-0.12,0.146
			C8.431,7.51,8.187,7.529,7.935,7.302c-0.124-0.111-0.232-0.24-0.357-0.35c-0.27-0.239-0.467-0.21-0.629,0.109
			C6.857,7.244,6.788,7.443,6.745,7.643C6.693,7.887,6.75,8.12,6.905,8.326c0.761,1.01,1.513,2.026,2.282,3.03
			c0.49,0.639,1.068,1.189,1.76,1.61c0.267,0.161,0.496,0.366,0.646,0.634c0.43,0.765,1.046,1.347,1.749,1.851
			c0.195,0.14,0.377,0.299,0.564,0.448c-0.005,0.019-0.009,0.037-0.014,0.056c-0.308-0.042-0.621-0.059-0.921-0.132
			c-0.435-0.105-0.861-0.246-1.288-0.382c-0.743-0.236-1.489-0.445-2.311-0.237c0.026-0.162,0.039-0.298,0.077-0.427
			c0.01-0.033,0.097-0.063,0.148-0.063c0.593-0.004,1.186-0.002,1.777-0.002c0.063,0,0.126,0,0.243,0
			c-0.067-0.087-0.098-0.168-0.15-0.187c-0.18-0.066-0.354-0.149-0.562-0.119c-0.501,0.071-1.006,0.129-1.509,0.018
			c-0.167-0.037-0.33-0.097-0.488-0.164c-0.132-0.056-0.207-0.181-0.137-0.31c0.092-0.17,0.07-0.287-0.081-0.369
			c0.09-0.125,0.178-0.229,0.242-0.347c0.03-0.056,0.028-0.141,0.01-0.204c-0.006-0.021-0.109-0.033-0.16-0.021
			c-0.552,0.137-1.037-0.007-1.467-0.354C7.059,12.445,6.816,12.216,6.562,12c-0.131-0.111-0.269-0.217-0.411-0.313
			c-0.224-0.151-0.463-0.24-0.745-0.209c-0.157,0.018-0.323,0.001-0.479-0.029c-0.414-0.078-0.658-0.345-0.782-0.76
			c0.253-0.057,0.501-0.112,0.755-0.169c-0.004-0.35-0.181-0.605-0.392-0.846C4.299,9.437,4.081,9.206,3.884,8.96
			C3.718,8.754,3.661,8.512,3.715,8.246c0.022-0.112,0.028-0.229,0.03-0.343c0.004-0.24-0.109-0.361-0.348-0.382
			c-0.371-0.032-0.38-0.028-0.411,0.335C2.961,8.163,2.945,8.47,2.922,8.804C2.373,8.405,2.479,7.799,2.364,7.261
			C2.191,7.215,2.051,7.282,1.948,7.417C1.837,7.563,1.745,7.723,1.645,7.876C1.466,8.151,1.301,8.175,1.029,7.985
			c-0.456-0.318-0.694-0.772-0.82-1.294C0.149,6.44,0.117,6.183,0.07,5.928C0.063,5.885,0.047,5.842,0.035,5.799
			c0-0.035,0-0.069,0-0.104c0.102-0.011,0.205-0.033,0.307-0.032C0.744,5.67,1.146,5.691,1.548,5.691
			c0.528,0,1.029-0.096,1.443-0.463c0.225-0.2,0.286-0.202,0.473,0.031c0.232,0.29,0.542,0.414,0.893,0.468
			c0.305,0.047,0.584,0.03,0.757-0.286C5.157,5.361,5.232,5.3,5.29,5.229C5.788,4.62,6.246,3.99,6.398,3.192
			c0.03-0.159,0.141-0.259,0.287-0.322C6.832,2.806,6.99,2.757,7.123,2.671c0.294-0.189,0.572-0.403,0.862-0.598
			c0.497-0.334,1.02-0.38,1.516-0.033c0.398,0.278,0.768,0.603,1.129,0.93c1.03,0.936,2.173,1.617,3.61,1.678
			c0.211,0.009,0.386-0.022,0.561-0.156c0.18-0.138,0.382-0.258,0.592-0.343c0.342-0.137,0.641-0.032,0.801,0.298
			c0.114,0.233,0.193,0.494,0.23,0.751c0.058,0.402,0.151,0.767,0.526,0.995c0.254,0.154,0.505,0.313,0.758,0.469
			C17.708,6.674,17.708,6.685,17.708,6.697z"/>
	</g>
</g>
</svg>
